<?xml version="1.0" encoding="UTF-8"?><!DOCTYPE svg PUBLIC "-//W3C//DTD SVG 1.1//EN" "http://www.w3.org/Graphics/SVG/1.1/DTD/svg11.dtd"><svg style="display: none;" xmlns="http://www.w3.org/2000/svg" xmlns:xlink="http://www.w3.org/1999/xlink"><symbol id="svg-comment" viewBox="0 0 511.626 511.626">
	<path d="M477.371,127.44c-22.843-28.074-53.871-50.249-93.076-66.523c-39.204-16.272-82.035-24.41-128.478-24.41
		c-34.643,0-67.762,4.805-99.357,14.417c-31.595,9.611-58.812,22.602-81.653,38.97c-22.845,16.37-41.018,35.832-54.534,58.385
		C6.757,170.833,0,194.484,0,219.228c0,28.549,8.61,55.3,25.837,80.234c17.227,24.931,40.778,45.871,70.664,62.811
		c-2.096,7.611-4.57,14.846-7.426,21.693c-2.855,6.852-5.424,12.474-7.708,16.851c-2.286,4.377-5.376,9.233-9.281,14.562
		c-3.899,5.328-6.849,9.089-8.848,11.275c-1.997,2.19-5.28,5.812-9.851,10.849c-4.565,5.048-7.517,8.329-8.848,9.855
		c-0.193,0.089-0.953,0.952-2.285,2.567c-1.331,1.615-1.999,2.423-1.999,2.423l-1.713,2.566c-0.953,1.431-1.381,2.334-1.287,2.707
		c0.096,0.373-0.094,1.331-0.57,2.851c-0.477,1.526-0.428,2.669,0.142,3.433v0.284c0.765,3.429,2.43,6.187,4.998,8.277
		c2.568,2.092,5.474,2.95,8.708,2.563c12.375-1.522,23.223-3.606,32.548-6.276c49.87-12.758,93.649-35.782,131.334-69.097
		c14.272,1.522,28.072,2.286,41.396,2.286c46.442,0,89.271-8.138,128.479-24.417c39.208-16.272,70.233-38.448,93.072-66.517
		c22.843-28.062,34.263-58.663,34.263-91.781C511.626,186.108,500.207,155.509,477.371,127.44z"/>
</symbol><symbol id="svg-facebook" viewBox="0 0 96.124 96.123">

	<path d="M72.089,0.02L59.624,0C45.62,0,36.57,9.285,36.57,23.656v10.907H24.037c-1.083,0-1.96,0.878-1.96,1.961v15.803
		c0,1.083,0.878,1.96,1.96,1.96h12.533v39.876c0,1.083,0.877,1.96,1.96,1.96h16.352c1.083,0,1.96-0.878,1.96-1.96V54.287h14.654
		c1.083,0,1.96-0.877,1.96-1.96l0.006-15.803c0-0.52-0.207-1.018-0.574-1.386c-0.367-0.368-0.867-0.575-1.387-0.575H56.842v-9.246
		c0-4.444,1.059-6.7,6.848-6.7l8.397-0.003c1.082,0,1.959-0.878,1.959-1.96V1.98C74.046,0.899,73.17,0.022,72.089,0.02z"/>

</symbol><symbol id="svg-google-plus" viewBox="0 0 512 512">
<g>
	<g>
		<polygon points="448,224 448,160 416,160 416,224 352,224 352,256 416,256 416,320 448,320 448,256 512,256 512,224 		"/>
	</g>
</g>
<g>
	<g>
		<path d="M160,224v64h90.528c-13.216,37.248-48.8,64-90.528,64c-52.928,0-96-43.072-96-96c0-52.928,43.072-96,96-96
			c22.944,0,45.024,8.224,62.176,23.168l42.048-48.256C235.424,109.824,198.432,96,160,96C71.776,96,0,167.776,0,256
			s71.776,160,160,160s160-71.776,160-160v-32H160z"/>
	</g>
</g>
</symbol><symbol id="svg-pin-paper" viewBox="0 0 475.085 475.085">
	<path d="M379.577,247.395c-14.944-18.75-31.833-28.12-50.679-28.12V73.092c9.896,0,18.47-3.616,25.693-10.848
	c7.238-7.233,10.858-15.802,10.858-25.697c0-9.9-3.62-18.464-10.858-25.697C347.368,3.617,338.795,0,328.898,0H146.179
	c-9.9,0-18.464,3.617-25.697,10.85c-7.234,7.233-10.85,15.796-10.85,25.697c0,9.899,3.616,18.464,10.85,25.697
	c7.233,7.232,15.8,10.848,25.697,10.848v146.179c-18.844,0-35.734,9.374-50.677,28.123c-14.941,18.75-22.414,39.824-22.414,63.242
	c0,4.948,1.809,9.232,5.426,12.847c3.619,3.613,7.901,5.421,12.85,5.421h115.344l21.698,138.474
	c0.95,5.141,3.996,7.707,9.135,7.707h0.291c2.274,0,4.235-0.808,5.851-2.423c1.615-1.619,2.614-3.572,2.994-5.855l14.558-137.902
	h122.482c4.948,0,9.236-1.808,12.847-5.421c3.621-3.614,5.432-7.898,5.432-12.847C401.999,287.222,394.519,266.145,379.577,247.395
	z M210.132,210.14c0,2.662-0.855,4.849-2.57,6.565c-1.713,1.714-3.903,2.57-6.567,2.57c-2.662,0-4.853-0.855-6.567-2.57
	c-1.713-1.713-2.568-3.903-2.568-6.565V82.233c0-2.664,0.855-4.858,2.568-6.567c1.714-1.711,3.905-2.568,6.567-2.568
	c2.664,0,4.854,0.854,6.567,2.568c1.714,1.712,2.57,3.903,2.57,6.567V210.14z"/>
</symbol><symbol id="svg-search" viewBox="0 0 56.966 56.966">
	<path d="M55.146,51.887L41.588,37.786c3.486-4.144,5.396-9.358,5.396-14.786c0-12.682-10.318-23-23-23s-23,10.318-23,23
	s10.318,23,23,23c4.761,0,9.298-1.436,13.177-4.162l13.661,14.208c0.571,0.593,1.339,0.92,2.162,0.92
	c0.779,0,1.518-0.297,2.079-0.837C56.255,54.982,56.293,53.08,55.146,51.887z M23.984,6c9.374,0,17,7.626,17,17s-7.626,17-17,17
	s-17-7.626-17-17S14.61,6,23.984,6z"/>
</symbol><symbol id="svg-star" viewBox="0 0 49.94 49.94">
	<path d="M48.856,22.73c0.983-0.958,1.33-2.364,0.906-3.671c-0.425-1.307-1.532-2.24-2.892-2.438l-12.092-1.757
	c-0.515-0.075-0.96-0.398-1.19-0.865L28.182,3.043c-0.607-1.231-1.839-1.996-3.212-1.996c-1.372,0-2.604,0.765-3.211,1.996
	L16.352,14c-0.23,0.467-0.676,0.79-1.191,0.865L3.069,16.622c-1.359,0.197-2.467,1.131-2.892,2.438
	c-0.424,1.307-0.077,2.713,0.906,3.671l8.749,8.528c0.373,0.364,0.544,0.888,0.456,1.4L8.224,44.701
	c-0.183,1.06,0.095,2.091,0.781,2.904c1.066,1.267,2.927,1.653,4.415,0.871l10.814-5.686c0.452-0.237,1.021-0.235,1.472,0
	l10.815,5.686c0.526,0.277,1.087,0.417,1.666,0.417c1.057,0,2.059-0.47,2.748-1.288c0.687-0.813,0.964-1.846,0.781-2.904
	l-2.065-12.042c-0.088-0.513,0.083-1.036,0.456-1.4L48.856,22.73z"/>
</symbol><symbol id="svg-twitter" viewBox="0 0 612 612">

<path d="M612,116.258c-22.525,9.981-46.694,16.75-72.088,19.772c25.929-15.527,45.777-40.155,55.184-69.411
c-24.322,14.379-51.169,24.82-79.775,30.48c-22.907-24.437-55.49-39.658-91.63-39.658c-69.334,0-125.551,56.217-125.551,125.513
c0,9.828,1.109,19.427,3.251,28.606C197.065,206.32,104.556,156.337,42.641,80.386c-10.823,18.51-16.98,40.078-16.98,63.101
c0,43.559,22.181,81.993,55.835,104.479c-20.575-0.688-39.926-6.348-56.867-15.756v1.568c0,60.806,43.291,111.554,100.693,123.104
c-10.517,2.83-21.607,4.398-33.08,4.398c-8.107,0-15.947-0.803-23.634-2.333c15.985,49.907,62.336,86.199,117.253,87.194
c-42.947,33.654-97.099,53.655-155.916,53.655c-10.134,0-20.116-0.612-29.944-1.721c55.567,35.681,121.536,56.485,192.438,56.485
c230.948,0,357.188-191.291,357.188-357.188l-0.421-16.253C573.872,163.526,595.211,141.422,612,116.258z"/>

</symbol><symbol id="svg-user" viewBox="0 0 485.211 485.211">
	<path d="M394.235,333.585h-30.327c-33.495,0-60.653-27.158-60.653-60.654v-19.484c13.418-15.948,23.042-34.812,29.024-54.745
		c0.621-3.36,3.855-5.02,6.012-7.33c11.611-11.609,13.894-31.2,5.185-45.149c-1.186-2.117-3.322-3.953-3.201-6.576
		c0-17.784,0.089-35.596-0.023-53.366c-0.476-21.455-6.608-43.773-21.65-59.66c-12.144-12.836-28.819-20.479-46.022-23.75
		c-21.739-4.147-44.482-3.937-66.013,1.54c-18.659,4.709-36.189,15.637-47.028,31.836c-9.598,14.083-13.803,31.183-14.513,48.036
		c-0.266,18.094-0.061,36.233-0.116,54.371c0.413,3.631-2.667,6.088-4.058,9.094c-8.203,14.881-4.592,35.155,8.589,45.978
		c3.344,2.308,3.97,6.515,5.181,10.142c5.748,17.917,15.282,34.487,27.335,48.925v20.138c0,33.496-27.157,60.654-60.651,60.654
		H90.978c0,0-54.964,15.158-90.978,90.975v30.327c0,16.759,13.564,30.321,30.327,30.321h424.562
		c16.759,0,30.322-13.562,30.322-30.321V424.56C449.199,348.749,394.235,333.585,394.235,333.585z"/>
</symbol></svg>